<svg xmlns="http://www.w3.org/2000/svg" viewBox="0 0 512 512" role="img" aria-label="Sturm FPV – Storm Eye (Storm Navy + Green)">
  <!-- Farben -->
  <!-- Storm Navy: #0B1220 | Green: #66BB6A -->

  <!-- Outer ring -->
  <circle cx="256" cy="256" r="198" fill="none" stroke="#0B1220" stroke-width="18" stroke-linecap="round"/>

  <!-- Swirl + Lens (scaled inwards + dynamic offset) -->
  <g transform="translate(-29.36 0)">
    <g transform="translate(256 256) scale(0.92) translate(-256 -256)">

      <!-- Swirl (storm navy) -->
      <path d="M140 250c14-74 92-126 173-112c52 9 88 44 88 86c0 45-36 78-84 78c-39 0-67-22-67-54c0-28 22-46 50-46"
            fill="none" stroke="#0B1220" stroke-width="14"
            stroke-linecap="round" stroke-linejoin="round" opacity="0.92"/>
      <path d="M168 318c32 56 104 84 170 68c66-16 108-72 94-128"
            fill="none" stroke="#0B1220" stroke-width="10"
            stroke-linecap="round" opacity="0.65"/>
      <path d="M198 180c-44 34-62 90-40 140"
            fill="none" stroke="#0B1220" stroke-width="8"
            stroke-linecap="round" opacity="0.45"/>

      <!-- Lens / Eye (green) -->
      <circle cx="314" cy="256" r="24" fill="none" stroke="#66BB6A" stroke-width="5" opacity="0.98"/>
      <circle cx="314" cy="256" r="10" fill="#66BB6A"/>
      <circle cx="314" cy="256" r="4"  fill="#0B1220"/>
      <circle cx="307" cy="249" r="2.6" fill="#FFFFFF" opacity="0.35"/>

    </g>
  </g>
</svg>
